<?xml version="1.0" standalone="no"?>
<!DOCTYPE svg PUBLIC "-//W3C//DTD SVG 20010904//EN" "http://www.w3.org/TR/2001/REC-SVG-20010904/DTD/svg10.dtd">
<svg version="1.0" xmlns="http://www.w3.org/2000/svg" width="700.000000pt" height="700.000000pt"
    viewBox="0 0 700.000000 700.000000" preserveAspectRatio="xMidYMid meet">
    <metadata>
        Created by potrace 1.14, written by Peter Selinger 2001-2017
    </metadata>
    <g transform="translate(0.000000,700.000000) scale(0.100000,-0.100000)" stroke="none" id="g6">
        <path
            d="M 5249.9997,7000 H 1750 C 783.50129,7000 1.5e-5,6216.4987 1.5e-5,5250 V 1750 C 1.5e-5,783.49539 783.50129,-3.5e-5 1750,-3.5e-5 H 5249.9997 C 6216.5013,-3.5e-5 7000,783.49833 7000,1750 v 3500 c 0,966.4987 -783.4987,1750 -1750.0003,1750 z"
            fill="#000000" />
        <path
            d="m 2916.2465,1962.864 c 53.4859,278.1626 99.0267,570.9609 163.383,863.7796 31.6983,153.2358 -6.9329,218.6188 -178.2375,206.8937 -171.3016,-11.7045 -362.4017,-5.842 -544.6,0 -182.1838,5.8626 -214.8621,97.6064 -109.9001,228.3954 516.8626,638.3126 1039.675,1268.7939 1560.5188,1897.3472 58.4292,71.2454 125.7612,121.9983 221.8159,68.32 96.0277,-53.6813 76.2323,-120.05 60.3946,-200.0833 -57.4429,-292.8043 -104.9563,-585.6025 -168.3294,-872.5355 -32.6815,-148.3562 9.8903,-201.0546 164.3693,-195.2125 155.0286,7.808 310.3419,7.808 465.368,0 88.1358,0 203.9859,45.8704 249.5302,-74.1766 45.5431,-120.0501 -50.4883,-170.803 -99.0063,-242.0484 -198.036,-243.9937 -398.7169,-487.6608 -602.044,-731.0188 -297.6986,-355.2732 -593.1187,-709.2312 -886.1999,-1061.9 -57.4438,-69.2795 -121.8,-124.9266 -219.8234,-89.775 -98.0204,35.1313 -77.2392,118.0813 -77.2392,202.0142 z"
            fill="#ffffff" />
    </g>
</svg>