<?xml version="1.0" standalone="no"?>
<!DOCTYPE svg PUBLIC "-//W3C//DTD SVG 20010904//EN"
 "http://www.w3.org/TR/2001/REC-SVG-20010904/DTD/svg10.dtd">
<svg version="1.0" xmlns="http://www.w3.org/2000/svg"
 width="700.000000pt" height="700.000000pt" viewBox="0 0 700.000000 700.000000"
 preserveAspectRatio="xMidYMid meet">
<metadata>
Created by potrace 1.14, written by Peter Selinger 2001-2017
</metadata>
<g transform="translate(0.000000,700.000000) scale(0.100000,-0.100000)"
fill="#000000" stroke="none">
<path d="M1560 6990 c-25 -4 -63 -10 -85 -13 -348 -50 -691 -224 -955 -487
-285 -284 -461 -642 -508 -1035 -9 -80 -9 -3820 0 -3910 4 -38 10 -81 13 -95
3 -14 10 -48 16 -77 18 -92 78 -265 133 -378 264 -550 778 -914 1391 -984 88
-10 3867 -10 3900 1 11 3 43 9 70 12 263 35 612 193 825 373 76 64 194 185
249 253 28 36 56 70 61 77 5 6 29 42 54 80 123 192 221 446 252 660 3 26 9 57
13 68 9 32 11 3844 1 3905 -5 30 -11 73 -14 95 -7 51 -11 71 -31 148 -9 34
-18 69 -20 77 -10 43 -70 190 -114 278 -121 242 -297 450 -529 625 -34 26 -64
47 -67 47 -2 0 -23 13 -47 29 -49 33 -211 115 -248 126 -14 4 -30 11 -35 15
-18 15 -238 77 -315 90 -41 7 -86 15 -100 18 -39 9 -3859 11 -3910 2z"/>
</g>
</svg>
