<?xml version="1.0" encoding="utf-8"?>
<svg version="1.1" xmlns="http://www.w3.org/2000/svg" xmlns:xlink="http://www.w3.org/1999/xlink"
    width="752" height="80"
    viewBox="0 0 752 80">
    <symbol id="icon-arrow-right" viewBox="0 0 32 32">
        <path
            d="M16 1.367c-5.406 0-10.145 2.942-12.676 7.316-0.109 0.186-0.173 0.409-0.173 0.648 0 0.478 0.258 0.897 0.643 1.122l0.006 0.003c0.186 0.109 0.41 0.174 0.65 0.174 0.477 0 0.894-0.257 1.121-0.641l0.003-0.006c2.080-3.596 5.961-6.020 10.426-6.020 6.661 0 12.035 5.374 12.035 12.035s-5.374 12.035-12.035 12.035c-4.464 0-8.345-2.423-10.426-6.020-0.229-0.389-0.647-0.647-1.124-0.647-0.239 0-0.463 0.065-0.656 0.177l0.006-0.003c-0.391 0.229-0.649 0.647-0.649 1.126 0 0.238 0.064 0.462 0.176 0.654l-0.003-0.006c2.53 4.374 7.27 7.316 12.676 7.316 8.066 0 14.633-6.567 14.633-14.633s-6.567-14.633-14.633-14.633z">
        </path>
        <path
            d="M15.082 9.746c-0.236 0.235-0.381 0.561-0.381 0.92s0.146 0.685 0.381 0.92v0l4.414 4.414-4.414 4.414c-0.236 0.235-0.381 0.561-0.381 0.92s0.146 0.685 0.381 0.92v0c0.235 0.235 0.56 0.38 0.918 0.38s0.683-0.145 0.918-0.38l5.336-5.336c0.234-0.235 0.379-0.56 0.379-0.918s-0.145-0.683-0.379-0.918l-5.336-5.336c-0.235-0.235-0.56-0.38-0.918-0.38s-0.683 0.145-0.918 0.38l0-0z">
        </path>
        <path
            d="M2.668 14.699c-0 0-0.001 0-0.001 0-0.718 0-1.3 0.582-1.3 1.3 0 0 0 0.001 0 0.001v-0c0 0 0 0 0 0.001 0 0.718 0.582 1.3 1.3 1.3 0 0 0.001 0 0.001 0h18.664c0 0 0 0 0.001 0 0.718 0 1.3-0.582 1.3-1.3 0-0 0-0.001 0-0.001v0c0-0 0-0.001 0-0.001 0-0.718-0.582-1.3-1.3-1.3-0 0-0.001 0-0.001 0h0z">
        </path>
    </symbol>
    <symbol id="icon-bell" viewBox="0 0 32 32">
        <path
            d="M16 1.168c-2.519 0-4.938 1-6.719 2.781s-2.781 4.2-2.781 6.719c0 3.868-0.958 6.381-1.973 8.012-0.49 0.787-0.858 1.381-1.125 1.844-0.133 0.231-0.245 0.427-0.34 0.637s-0.267 0.336-0.211 1.016c0.017 0.211 0.065 0.543 0.254 0.883s0.447 0.554 0.617 0.68c0 0.001 0 0.001 0 0.002s0 0.001 0 0.002v-0c0.477 0.354 0.706 0.319 0.926 0.352s0.422 0.045 0.66 0.055c0.476 0.019 1.077 0.020 1.875 0.020h17.633c0.797 0 1.399-0.001 1.875-0.020 0.238-0.009 0.44-0.022 0.66-0.055s0.449 0.002 0.926-0.352c0-0.001 0-0.001 0-0.002s0-0.001 0-0.002v0c0.17-0.126 0.429-0.34 0.617-0.68s0.237-0.672 0.254-0.883c0.056-0.68-0.116-0.806-0.211-1.016s-0.206-0.405-0.34-0.637c-0.267-0.463-0.635-1.057-1.125-1.844-1.015-1.631-1.973-4.144-1.973-8.012 0-2.519-1-4.938-2.781-6.719s-4.2-2.781-6.719-2.781zM16 4.168c1.724 0 3.378 0.683 4.598 1.902s1.902 2.873 1.902 4.598c0 4.373 1.119 7.497 2.426 9.598 0.251 0.403 0.368 0.601 0.551 0.898-0.241 0.001-0.361 0.004-0.66 0.004h-17.633c-0.3 0-0.419-0.003-0.66-0.004 0.183-0.298 0.3-0.495 0.551-0.898 1.307-2.101 2.426-5.225 2.426-9.598 0-1.724 0.683-3.378 1.902-4.598s2.873-1.902 4.598-1.902zM12.379 26.504c-0.412 0.026-0.775 0.215-1.030 0.502l-0.001 0.002c-0.233 0.263-0.375 0.611-0.375 0.992 0 0.447 0.196 0.849 0.506 1.124l0.002 0.001c1.203 1.062 2.795 1.707 4.52 1.707s3.317-0.645 4.52-1.707c0.312-0.276 0.508-0.678 0.508-1.125 0-0.381-0.142-0.729-0.376-0.994l0.001 0.002c-0.276-0.312-0.678-0.508-1.125-0.508-0.381 0-0.729 0.142-0.994 0.376l0.002-0.001c-0.677 0.598-1.555 0.957-2.535 0.957s-1.858-0.359-2.535-0.957c-0.263-0.232-0.61-0.374-0.991-0.374-0.033 0-0.066 0.001-0.099 0.003l0.004-0z">
        </path>
    </symbol>
    <symbol id="icon-burger" viewBox="0 0 32 32">
        <path
            d="M4 14.667c-0.736 0-1.333 0.597-1.333 1.333v0c0 0.736 0.597 1.333 1.333 1.333v0h24c0.736 0 1.333-0.597 1.333-1.333v0c0-0.736-0.597-1.333-1.333-1.333v0z">
        </path>
        <path
            d="M4 6.667c-0.736 0-1.333 0.597-1.333 1.333v0c0 0.736 0.597 1.333 1.333 1.333v0h24c0.736 0 1.333-0.597 1.333-1.333v0c0-0.736-0.597-1.333-1.333-1.333v0z">
        </path>
        <path
            d="M4 22.667c-0.736 0-1.333 0.597-1.333 1.333v0c0 0.736 0.597 1.333 1.333 1.333v0h24c0.736 0 1.333-0.597 1.333-1.333v0c0-0.736-0.597-1.333-1.333-1.333v0z">
        </path>
    </symbol>
    <symbol id="icon-chevron-down" viewBox="0 0 32 32">
        <path
            d="M8.471 10.824c-0.001 0-0.002 0-0.003 0-0.389 0-0.741 0.157-0.997 0.412l0-0c-0.256 0.256-0.415 0.609-0.415 1s0.159 0.744 0.415 1l7.529 7.529c0.256 0.256 0.609 0.415 1 0.415s0.744-0.159 1-0.415l7.529-7.529c0.256-0.256 0.415-0.609 0.415-1s-0.159-0.744-0.415-1l-0-0c-0.256-0.257-0.609-0.415-1-0.415s-0.744 0.159-1 0.415l-6.529 6.529-6.529-6.529c-0.255-0.254-0.608-0.412-0.997-0.412-0.001 0-0.002 0-0.004 0h0z">
        </path>
    </symbol>
    <symbol id="icon-colors" viewBox="0 0 32 32">
        <path
            d="M16 1.333c-5.139 0-9.333 4.194-9.333 9.333 0 0.768 0.264 1.452 0.441 2.167-3.362 1.415-5.774 4.639-5.774 8.5 0 5.139 4.194 9.333 9.333 9.333 2.004 0 3.764-0.774 5.288-1.858 1.534 1.105 3.35 1.858 5.378 1.858 5.139 0 9.333-4.194 9.333-9.333 0-3.861-2.413-7.085-5.774-8.5 0.177-0.715 0.441-1.399 0.441-2.167 0-5.139-4.194-9.333-9.333-9.333zM16 4c3.698 0 6.667 2.969 6.667 6.667s-2.969 6.667-6.667 6.667c-3.698 0-6.667-2.969-6.667-6.667s2.969-6.667 6.667-6.667zM8.153 15.403c1.64 2.695 4.474 4.597 7.847 4.597 0.369 0 0.683-0.17 1.042-0.212 0.124 0.507 0.292 0.997 0.292 1.545 0 3.698-2.969 6.667-6.667 6.667s-6.667-2.969-6.667-6.667c0-2.755 1.787-4.91 4.153-5.931zM23.847 15.403c2.366 1.020 4.153 3.175 4.153 5.931 0 3.698-2.969 6.667-6.667 6.667-1.275 0-2.398-0.443-3.406-1.059 1.223-1.579 2.073-3.465 2.073-5.608 0-0.727-0.234-1.384-0.392-2.066 1.821-0.769 3.221-2.191 4.24-3.865z">
        </path>
    </symbol>
    <symbol id="icon-container" viewBox="0 0 32 32">
        <path
            d="M15.462 1.58c-0.476 0.098-0.768 0.286-1.146 0.497l-9.865 5.483c-0.399 0.222-0.733 0.374-1.080 0.75 0 0.001 0 0.001 0 0.002s0 0.001 0 0.002v-0c-0.257 0.279-0.45 0.608-0.569 0.969-0.16 0.486-0.135 0.852-0.135 1.309v10.819c0 0.457-0.025 0.823 0.135 1.309 0.119 0.361 0.313 0.69 0.569 0.969 0 0.001 0 0.001 0 0.002s0 0.001 0 0.002v-0c0.347 0.376 0.681 0.528 1.080 0.75l9.865 5.483c0.378 0.21 0.67 0.398 1.146 0.497 0.354 0.073 0.722 0.073 1.076 0 0.476-0.098 0.768-0.286 1.146-0.497l9.865-5.483c0.001 0 0.001 0 0.002 0s0.001 0 0.002 0h-0c0.399-0.222 0.73-0.374 1.076-0.75 0-0.001 0-0.001 0-0.002s0-0.001 0-0.002v0c0.257-0.279 0.45-0.609 0.569-0.969 0.161-0.486 0.135-0.852 0.135-1.309v-10.819c0-0.457 0.025-0.823-0.135-1.309-0.119-0.36-0.312-0.693-0.569-0.972-0.346-0.376-0.677-0.528-1.076-0.75-0.001 0-0.001 0-0.002 0s-0.001 0-0.002 0h0l-9.864-5.483c-0.378-0.21-0.67-0.399-1.146-0.497-0.354-0.073-0.722-0.073-1.076 0zM16 4.191c-0.076-0.016 0.011 0.005 0.389 0.215l8.868 4.927-9.257 5.142-9.253-5.142 8.865-4.927c0.378-0.21 0.465-0.231 0.389-0.215zM5.333 11.597l9.333 5.188v10.285l-8.92-4.958c-0.399-0.222-0.469-0.29-0.413-0.229 0.026 0.078 0-0.015 0-0.472zM26.667 11.597v9.813c0 0.457-0.026 0.551 0 0.472 0.056-0.060-0.014 0.007-0.413 0.229l-8.92 4.958v-10.285z">
        </path>
    </symbol>
    <symbol id="icon-filter" viewBox="0 0 32 32">
        <path
            d="M2.668 2.5c-0.001 0-0.002 0-0.003 0-0.829 0-1.5 0.672-1.5 1.5 0 0.37 0.134 0.709 0.356 0.971l-0.002-0.002 10.313 12.195v8.168c0 0 0 0 0 0.001 0 0.585 0.335 1.092 0.823 1.339l0.009 0.004 5.332 2.664c0.196 0.1 0.427 0.159 0.672 0.159 0.828 0 1.499-0.671 1.5-1.499v-10.836l10.313-12.195c0.221-0.26 0.355-0.598 0.355-0.969 0-0.829-0.672-1.5-1.5-1.5-0.001 0-0.002 0-0.003 0h0zM5.902 5.5h20.195l-8.578 10.145c-0.219 0.259-0.352 0.596-0.352 0.965 0 0.001 0 0.003 0 0.004v-0 8.961l-2.336-1.168v-7.793c0-0.001 0-0.002 0-0.004 0-0.369-0.133-0.706-0.353-0.967l0.002 0.002z">
        </path>
    </symbol>
    <symbol id="icon-help-circle" viewBox="0 0 32 32">
        <path
            d="M16 1.228c-8.142 0-14.772 6.63-14.772 14.772s6.63 14.775 14.772 14.775 14.775-6.633 14.775-14.775c0-8.142-6.633-14.772-14.775-14.772zM16 4.106c6.586 0 11.894 5.308 11.894 11.894s-5.308 11.894-11.894 11.894-11.894-5.308-11.894-11.894c0-6.586 5.308-11.894 11.894-11.894z">
        </path>
        <path
            d="M16.813 7.966c-1.266-0.217-2.568 0.021-3.675 0.672s-1.949 1.673-2.375 2.884c-0.052 0.143-0.082 0.308-0.082 0.48 0 0.623 0.396 1.154 0.95 1.355l0.010 0.003c0.143 0.052 0.307 0.082 0.479 0.082 0.624 0 1.156-0.397 1.356-0.953l0.003-0.010c0.201-0.571 0.597-1.053 1.119-1.359s1.132-0.418 1.728-0.316c0.596 0.102 1.139 0.412 1.528 0.875s0.601 1.048 0.6 1.653c0 0 0 0.001 0 0.002s0 0.001 0 0.002v-0c0 0.613-0.544 1.256-1.359 1.8s-1.656 0.831-1.656 0.831c-0.576 0.197-0.984 0.734-0.984 1.366 0 0.163 0.027 0.32 0.077 0.466l-0.003-0.010c0.196 0.578 0.734 0.986 1.367 0.986 0.163 0 0.319-0.027 0.465-0.077l-0.010 0.003c0 0 1.156-0.379 2.341-1.169s2.644-2.144 2.644-4.197c0.002-1.284-0.451-2.527-1.278-3.509s-1.978-1.642-3.244-1.859z">
        </path>
        <path
            d="M16 21.228c-0 0-0 0-0.001 0-0.794 0-1.439 0.643-1.44 1.437v0c0 0 0 0 0 0.001 0 0.795 0.645 1.44 1.44 1.44 0 0 0 0 0.001 0h0.019c0 0 0 0 0.001 0 0.795 0 1.44-0.645 1.44-1.44 0-0 0-0 0-0.001v0c-0.001-0.794-0.646-1.438-1.44-1.438-0 0-0 0-0.001 0h0z">
        </path>
    </symbol>
    <symbol id="icon-hexagon" viewBox="0 0 32 32">
        <path
            d="M15.462 1.58c-0.476 0.098-0.768 0.286-1.146 0.497l-9.865 5.483c-0.399 0.222-0.733 0.374-1.080 0.75 0 0.001 0 0.001 0 0.002s0 0.001 0 0.002v-0c-0.257 0.279-0.45 0.608-0.569 0.969-0.16 0.486-0.135 0.852-0.135 1.309v10.819c0 0.457-0.025 0.823 0.135 1.309 0.119 0.361 0.313 0.69 0.569 0.969 0 0.001 0 0.001 0 0.002s0 0.001 0 0.002v-0c0.347 0.376 0.681 0.528 1.080 0.75l9.865 5.483c0.378 0.21 0.67 0.398 1.146 0.497 0.354 0.073 0.722 0.073 1.076 0 0.476-0.098 0.768-0.286 1.146-0.497l9.865-5.483c0.001 0 0.001 0 0.002 0s0.001 0 0.002 0h-0c0.399-0.222 0.73-0.374 1.076-0.75 0-0.001 0-0.001 0-0.002s0-0.001 0-0.002v0c0.257-0.279 0.45-0.609 0.569-0.969 0.161-0.486 0.135-0.852 0.135-1.309v-10.819c0-0.457 0.025-0.823-0.135-1.309-0.119-0.36-0.312-0.693-0.569-0.972-0.346-0.376-0.677-0.528-1.076-0.75-0.001 0-0.001 0-0.002 0s-0.001 0-0.002 0h0l-9.864-5.483c-0.378-0.21-0.67-0.399-1.146-0.497-0.354-0.073-0.722-0.073-1.076 0zM16 4.191c-0.076-0.016 0.011 0.005 0.389 0.215l9.868 5.483c0.392 0.218 0.465 0.289 0.41 0.229-0.026-0.078 0 0.015 0 0.472v10.819c0 0.457-0.026 0.551 0 0.472 0.056-0.060-0.014 0.007-0.413 0.229l-9.865 5.483c-0.378 0.21-0.464 0.231-0.389 0.215 0.076 0.016-0.011-0.005-0.389-0.215l-9.865-5.483c-0.399-0.222-0.469-0.29-0.413-0.229 0.026 0.078 0-0.015 0-0.472v-10.819c0-0.457 0.026-0.55 0-0.472-0.056 0.061 0.014-0.007 0.413-0.229l9.865-5.483c0.378-0.21 0.465-0.231 0.389-0.215z">
        </path>
    </symbol>
    <symbol id="icon-lightning" viewBox="0 0 32 32">
        <path
            d="M11.326 1.333c-0.239 0-0.5-0.030-0.899 0.108-0.28 0.097-0.538 0.254-0.75 0.462 0 0 0 0.001 0 0.002s0 0.001 0 0.002v-0c-0.302 0.295-0.393 0.539-0.5 0.753l-5.597 11.201c-0.256 0.511-0.611 0.87-0.479 1.764 0.080 0.544 0.38 1.032 0.83 1.347 0.74 0.518 1.224 0.361 1.795 0.361h6.483l-3.486 11.618c-0.035 0.114-0.056 0.246-0.056 0.382 0 0.736 0.597 1.333 1.333 1.333 0.376 0 0.716-0.156 0.958-0.406l0-0 16.257-16.861c0.274-0.284 0.493-0.506 0.698-0.76s0.475-0.588 0.514-1.174c0.042-0.633-0.221-1.251-0.705-1.66-0.448-0.379-0.876-0.419-1.201-0.448s-0.636-0.024-1.031-0.024h-7.566l2.323-6.198c0.054-0.139 0.085-0.3 0.085-0.469 0-0.736-0.596-1.332-1.331-1.333h-0zM11.49 4h5.583l-2.323 6.198c-0.054 0.139-0.085 0.3-0.085 0.469 0 0.736 0.597 1.333 1.333 1.333 0.001 0 0.001 0 0.002 0h8.864l-12.007 12.444 2.42-8.063c0.035-0.114 0.056-0.246 0.056-0.382 0-0.736-0.597-1.333-1.333-1.333-0 0-0 0-0 0h-7.844z">
        </path>
    </symbol>
    <symbol id="icon-loading" viewBox="0 0 32 32">
        <path
            d="M16 1.34c-2.194 0-4.322 0.639-6.337 1.615-2.334 1.093-4.035 2.674-4.035 2.674-4.528 4.528-5.319 11.243-2.674 16.708 0.733 1.516 1.729 3.108 2.674 4.035 4.528 4.528 11.243 5.319 16.708 2.674 1.514-0.494 2.761-1.409 4.035-2.674 4.528-4.528 5.319-11.243 2.674-16.708-0.517-1.496-1.391-2.545-2.674-4.035-2.858-2.858-6.615-4.288-10.372-4.288zM17.531 4.292c2.53 0.331 5.005 1.272 6.955 3.222 0.881 0.881 1.432 1.934 1.983 2.979 0.988 2.207 0.438 4.804-1.611 6.191-0.001 0-0.002 0-0.004 0-1.761 1.189-4.064 1.152-5.781-0.097l-1.208-0.878 0.882-1.212c1.904-2.618 1.961-6.161 0.149-8.844-0.002-0.001-0.005-0.002-0.007-0.003l-0.021-0.021c-0.368-0.539-0.866-0.922-1.337-1.337zM13.646 5.056c1.198 0.276 2.295 0.989 3.038 2.087 0.001 0.001 0.002 0.002 0.003 0.003 1.189 1.761 1.148 4.064-0.101 5.781l-0.878 1.212-1.212-0.882c-2.619-1.903-6.162-1.965-8.844-0.153-0.071 0.049-0.138 0.105-0.198 0.167l0.194-0.16c-0.55 0.373-0.936 0.881-1.358 1.361 0.33-2.532 1.271-5.007 3.222-6.958 0.88-0.88 1.934-1.429 2.979-1.979 1.024-0.458 2.117-0.718 3.153-0.479zM10.052 14.451c1.011 0.017 2.016 0.341 2.875 0.965v-0.003l1.212 0.882-0.878 1.208c-1.903 2.619-1.965 6.162-0.153 8.844 0.001 0.001 0.002 0.002 0.003 0.004 0.373 0.55 0.882 0.936 1.361 1.358-2.532-0.33-5.007-1.271-6.958-3.222-0.88-0.88-1.432-1.935-1.983-2.979-0.987-2.21-0.433-4.804 1.615-6.191 0.88-0.595 1.896-0.882 2.906-0.865zM27.708 17.531c-0.331 2.53-1.272 5.005-3.222 6.955-0.881 0.881-1.937 1.432-2.983 1.983-2.209 0.983-4.798 0.431-6.184-1.615-1.189-1.759-1.152-4.066 0.097-5.785l0.878-1.205 1.208 0.878c2.618 1.904 6.161 1.965 8.844 0.153 0.071-0.048 0.137-0.103 0.198-0.163v-0.004l-0.194 0.16c0.55-0.372 0.936-0.879 1.358-1.358z">
        </path>
    </symbol>
    <symbol id="icon-logo-flash-dark" viewBox="0 0 32 32">
        <path fill="#1f1f1f"
            d="M24 0h-16c-4.418 0-8 3.582-8 8v16c0 4.418 3.582 8 8 8h16c4.418 0 8-3.582 8-8v-16c0-4.418-3.582-8-8-8z">
        </path>
        <path fill="#fff"
            d="M13.331 23.027c0.245-1.272 0.453-2.61 0.747-3.949 0.145-0.701-0.032-0.999-0.815-0.946s-1.657 0.027-2.49 0c-0.833-0.027-0.982-0.446-0.502-1.044 2.363-2.918 4.753-5.8 7.134-8.674 0.267-0.326 0.575-0.558 1.014-0.312s0.349 0.549 0.276 0.915c-0.263 1.339-0.48 2.677-0.77 3.989-0.149 0.678 0.045 0.919 0.751 0.892 0.709-0.036 1.419-0.036 2.127 0 0.403 0 0.933-0.21 1.141 0.339s-0.231 0.781-0.453 1.107c-0.905 1.115-1.823 2.229-2.752 3.342-1.361 1.624-2.711 3.242-4.051 4.854-0.263 0.317-0.557 0.571-1.005 0.41s-0.353-0.54-0.353-0.924z">
        </path>
    </symbol>
    <symbol id="icon-logo-flash-light" viewBox="0 0 32 32">
        <path fill="#ecedfd"
            d="M24 0h-16c-4.418 0-8 3.582-8 8v16c0 4.418 3.582 8 8 8h16c4.418 0 8-3.582 8-8v-16c0-4.418-3.582-8-8-8z">
        </path>
        <path fill="#5255bc"
            d="M13.331 23.027c0.245-1.272 0.453-2.61 0.747-3.949 0.145-0.701-0.032-0.999-0.815-0.946s-1.657 0.027-2.49 0c-0.833-0.027-0.982-0.446-0.502-1.044 2.363-2.918 4.753-5.8 7.134-8.674 0.267-0.326 0.575-0.558 1.014-0.312s0.349 0.549 0.276 0.915c-0.263 1.339-0.48 2.677-0.77 3.989-0.149 0.678 0.045 0.919 0.751 0.892 0.709-0.036 1.419-0.036 2.127 0 0.403 0 0.933-0.21 1.141 0.339s-0.231 0.781-0.453 1.107c-0.905 1.115-1.823 2.229-2.752 3.342-1.361 1.624-2.711 3.242-4.051 4.854-0.263 0.317-0.557 0.571-1.005 0.41s-0.353-0.54-0.353-0.924z">
        </path>
    </symbol>
    <symbol id="icon-logout" viewBox="0 0 32 32">
        <path
            d="M20.146 2.57c-2.791 0-4.946 0.502-6.482 1.748s-2.328 3.179-2.545 5.697c-0.002 0.020-0.003 0.042-0.003 0.065 0 0.392 0.3 0.713 0.684 0.747l0.003 0c0.019 0.002 0.041 0.003 0.063 0.003 0.392 0 0.713-0.3 0.747-0.683l0-0.003c0.196-2.282 0.845-3.729 1.996-4.662s2.928-1.412 5.537-1.412h0.174c2.88 0 4.732 0.573 5.877 1.719s1.719 2.997 1.719 5.877v8.693c0 2.88-0.573 4.734-1.719 5.879s-2.997 1.719-5.877 1.719h-0.174c-2.59 0-4.36-0.473-5.51-1.393s-1.801-2.34-2.010-4.58c-0.037-0.383-0.357-0.681-0.747-0.681-0.024 0-0.049 0.001-0.073 0.003l0.003-0c-0.383 0.037-0.681 0.357-0.681 0.747 0 0.024 0.001 0.049 0.003 0.073l-0-0.003c0.231 2.48 1.033 4.386 2.566 5.613s3.677 1.721 6.447 1.721h0.174c3.080 0 5.399-0.62 6.938-2.158s2.158-3.859 2.158-6.939v-8.693c0-3.080-0.62-5.399-2.158-6.938s-3.857-2.158-6.938-2.158z">
        </path>
        <path
            d="M2.666 15.25c-0.414 0-0.75 0.336-0.75 0.75v0c0 0.414 0.336 0.75 0.75 0.75v0h17.174c0.414 0 0.75-0.336 0.75-0.75v0c0-0.414-0.336-0.75-0.75-0.75v0z">
        </path>
        <path
            d="M16.867 10.783c-0.208 0-0.395 0.084-0.531 0.221l-0 0c-0.136 0.136-0.22 0.323-0.22 0.53s0.084 0.395 0.22 0.53l3.936 3.936-3.936 3.936c-0.136 0.136-0.22 0.323-0.22 0.53s0.084 0.395 0.22 0.53v0c0.136 0.136 0.323 0.22 0.53 0.22s0.395-0.084 0.53-0.22l4.467-4.465c0.136-0.136 0.221-0.324 0.221-0.531s-0.084-0.395-0.221-0.531l-4.467-4.465c-0.135-0.136-0.322-0.22-0.529-0.221h-0z">
        </path>
    </symbol>
    <symbol id="icon-pencil" viewBox="0 0 32 32">
        <path
            d="M25.332 1.605c-1.301 0-2.601 0.492-3.586 1.477l-15.039 15.039c-0.359 0.359-0.576 0.574-0.797 0.859-0.181 0.234-0.345 0.482-0.484 0.742-0.171 0.318-0.279 0.605-0.461 1.078l-0.102 0.266-2.742 7.133c-0.055 0.138-0.086 0.298-0.086 0.466 0 0.718 0.582 1.3 1.3 1.3 0.168 0 0.328-0.032 0.475-0.089l-0.009 0.003 7.398-2.844c0.473-0.182 0.76-0.29 1.078-0.461 0.259-0.139 0.509-0.3 0.742-0.48l0.004-0.004c0.283-0.22 0.499-0.44 0.855-0.797l15.039-15.039c1.97-1.97 1.97-5.202 0-7.172-0.985-0.985-2.285-1.477-3.586-1.477zM25.332 4.188c0.63 0 1.262 0.242 1.75 0.73 0.976 0.976 0.976 2.52 0 3.496l-15.039 15.039c-0.055 0.055-0.048 0.045-0.094 0.090-0.077-0.070-0.115-0.213-0.191-0.289l-3.012-3.012c-0.076-0.076-0.219-0.114-0.289-0.191 0.045-0.045 0.035-0.039 0.090-0.094l15.039-15.039c0.488-0.488 1.116-0.73 1.746-0.73zM7.164 22.332l2.504 2.508-4.070 1.563z">
        </path>
    </symbol>
    <symbol id="icon-plus" viewBox="0 0 32 32">
        <path
            d="M16 5.228c-0 0-0 0-0.001 0-0.794 0-1.439 0.643-1.44 1.437v7.894h-7.894c-0.794 0.001-1.438 0.646-1.438 1.44 0 0 0 0 0 0.001v-0c0 0 0 0 0 0.001 0 0.794 0.643 1.439 1.437 1.44h7.894v7.894c0.001 0.794 0.646 1.438 1.44 1.438 0 0 0 0 0.001 0h-0c0 0 0 0 0.001 0 0.794 0 1.439-0.643 1.44-1.437v-7.894h7.894c0 0 0 0 0.001 0 0.795 0 1.44-0.645 1.44-1.44 0-0 0-0 0-0.001v0c0-0 0-0 0-0.001 0-0.795-0.645-1.44-1.44-1.44-0 0-0 0-0.001 0h-7.894v-7.894c-0.001-0.794-0.646-1.438-1.44-1.438-0 0-0 0-0.001 0h0z">
        </path>
    </symbol>
    <symbol id="icon-Project" viewBox="0 0 32 32">
        <path
            d="M6.674 3.097c-1.772 0.416-3.161 1.805-3.576 3.576-0.307 1.311-0.307 2.675 0 3.986 0.416 1.772 1.805 3.161 3.576 3.576 1.311 0.307 2.675 0.307 3.986 0 1.772-0.416 3.161-1.805 3.576-3.576 0.307-1.311 0.307-2.675 0-3.986-0.416-1.772-1.805-3.161-3.576-3.576-1.311-0.307-2.675-0.307-3.986 0zM7.281 5.694c0.91-0.213 1.861-0.213 2.771 0 0.791 0.186 1.401 0.796 1.587 1.587 0.213 0.91 0.213 1.861 0 2.771-0.186 0.791-0.796 1.401-1.587 1.587-0.91 0.213-1.861 0.213-2.771 0-0.791-0.186-1.401-0.796-1.587-1.587-0.213-0.91-0.213-1.861 0-2.771 0.186-0.791 0.796-1.401 1.587-1.587z">
        </path>
        <path
            d="M6.674 17.764c-1.772 0.415-3.161 1.805-3.576 3.576-0.307 1.311-0.307 2.675 0 3.986 0.416 1.771 1.805 3.161 3.576 3.576 1.311 0.308 2.675 0.308 3.986 0 1.772-0.415 3.161-1.805 3.576-3.576 0.307-1.311 0.307-2.675 0-3.986-0.416-1.771-1.805-3.161-3.576-3.576-1.311-0.308-2.675-0.308-3.986 0zM7.281 20.361h0.003c0.91-0.214 1.854-0.214 2.764 0h0.003c0.791 0.185 1.401 0.796 1.587 1.587 0.214 0.91 0.214 1.86 0 2.771-0.186 0.791-0.796 1.401-1.587 1.587h-0.003c-0.91 0.214-1.854 0.214-2.764 0h-0.003c-0.791-0.185-1.401-0.796-1.587-1.587-0.214-0.91-0.214-1.86 0-2.771 0.186-0.791 0.796-1.401 1.587-1.587z">
        </path>
        <path
            d="M21.34 3.097c-1.771 0.416-3.161 1.805-3.576 3.576-0.308 1.311-0.308 2.675 0 3.986 0.415 1.772 1.805 3.161 3.576 3.576 1.311 0.307 2.675 0.307 3.986 0 1.771-0.416 3.161-1.805 3.576-3.576 0.308-1.311 0.308-2.675 0-3.986-0.415-1.772-1.805-3.161-3.576-3.576-1.311-0.307-2.675-0.307-3.986 0zM21.948 5.694c0.91-0.214 1.86-0.214 2.771 0 0.791 0.186 1.401 0.796 1.587 1.587v0.003c0.214 0.91 0.214 1.854 0 2.764v0.003c-0.185 0.791-0.796 1.401-1.587 1.587-0.91 0.214-1.86 0.214-2.771 0-0.791-0.186-1.401-0.796-1.587-1.587v-0.003c-0.214-0.91-0.214-1.854 0-2.764v-0.003c0.185-0.791 0.796-1.401 1.587-1.587z">
        </path>
        <path
            d="M21.34 17.764c-1.772 0.415-3.161 1.805-3.576 3.576-0.308 1.311-0.308 2.675 0 3.986 0.415 1.772 1.805 3.161 3.576 3.576 1.311 0.308 2.675 0.308 3.986 0 1.772-0.415 3.161-1.805 3.576-3.576 0.308-1.311 0.308-2.675 0-3.986-0.415-1.772-1.805-3.161-3.576-3.576-1.311-0.308-2.675-0.308-3.986 0zM21.948 20.361c0.91-0.214 1.861-0.214 2.771 0 0.791 0.185 1.401 0.796 1.587 1.587 0.214 0.91 0.214 1.861 0 2.771-0.185 0.791-0.796 1.401-1.587 1.587-0.91 0.214-1.861 0.214-2.771 0-0.791-0.185-1.401-0.796-1.587-1.587-0.214-0.91-0.214-1.861 0-2.771 0.185-0.791 0.796-1.401 1.587-1.587z">
        </path>
    </symbol>
    <symbol id="icon-puzzle" viewBox="0 0 32 32">
        <path
            d="M15.056 1.722l-4.799 4.802c-0.241 0.241-0.389 0.574-0.389 0.942 0 0.566 0.352 1.049 0.849 1.243l0.009 0.003c1.834 0.699 2.428 1.547 2.594 2.198s-0.076 1.326-0.58 1.83c-0.504 0.504-1.179 0.745-1.83 0.58s-1.499-0.76-2.198-2.594c-0.197-0.506-0.68-0.858-1.246-0.858-0.368 0-0.7 0.149-0.942 0.389l-4.802 4.799c-0.242 0.241-0.392 0.575-0.392 0.944s0.15 0.703 0.392 0.944l3.618 3.615c-1.292 0.851-2.277 1.849-2.576 3.028-0.422 1.662 0.198 3.292 1.278 4.372s2.71 1.7 4.372 1.278c1.179-0.3 2.177-1.285 3.028-2.576l3.615 3.618c0.241 0.242 0.575 0.392 0.944 0.392s0.703-0.15 0.944-0.392l4.799-4.802c0.241-0.241 0.389-0.574 0.389-0.942 0-0.566-0.352-1.049-0.849-1.243l-0.009-0.003c-1.834-0.699-2.428-1.547-2.594-2.198s0.076-1.326 0.58-1.83c0.504-0.504 1.179-0.745 1.83-0.58s1.499 0.76 2.198 2.594c0.197 0.506 0.68 0.858 1.246 0.858 0.368 0 0.7-0.149 0.942-0.389l4.802-4.799c0.242-0.241 0.392-0.575 0.392-0.944s-0.15-0.703-0.392-0.944l-3.618-3.615c1.291-0.851 2.277-1.849 2.576-3.028 0.422-1.662-0.198-3.292-1.278-4.372s-2.71-1.7-4.372-1.278c-1.179 0.3-2.177 1.285-3.028 2.576l-3.615-3.618c-0.241-0.242-0.575-0.392-0.944-0.392s-0.703 0.15-0.944 0.392l-0 0zM16 4.556l3.858 3.854c0.241 0.241 0.574 0.389 0.942 0.389 0.566 0 1.049-0.352 1.243-0.849l0.003-0.009c0.699-1.834 1.547-2.428 2.198-2.594s1.326 0.076 1.83 0.58c0.504 0.504 0.745 1.179 0.58 1.83s-0.76 1.499-2.594 2.198c-0.506 0.197-0.858 0.68-0.858 1.246 0 0.368 0.149 0.7 0.389 0.942l3.854 3.858-2.67 2.674c-0.851-1.291-1.849-2.277-3.028-2.576-1.662-0.422-3.292 0.198-4.372 1.278s-1.7 2.71-1.278 4.372c0.3 1.179 1.285 2.177 2.576 3.028l-2.674 2.67-3.858-3.854c-0.241-0.241-0.574-0.389-0.942-0.389-0.566 0-1.049 0.352-1.243 0.849l-0.003 0.009c-0.699 1.834-1.547 2.428-2.198 2.594s-1.326-0.076-1.83-0.58c-0.504-0.504-0.745-1.179-0.58-1.83s0.76-1.499 2.594-2.198c0.506-0.197 0.858-0.68 0.858-1.246 0-0.368-0.149-0.7-0.389-0.942l-3.854-3.858 2.67-2.674c0.851 1.292 1.849 2.277 3.028 2.576 1.662 0.422 3.292-0.198 4.372-1.278s1.7-2.71 1.278-4.372c-0.3-1.179-1.285-2.177-2.576-3.028z">
        </path>
    </symbol>
    <symbol id="icon-star" viewBox="0 0 32 32">
        <path
            d="M16 1.333c-0.564 0.001-1.045 0.351-1.24 0.845l-0.003 0.009-2.684 6.976c-0.376 0.978-0.538 1.359-0.698 1.583-0.173 0.243-0.386 0.456-0.628 0.628-0.224 0.16-0.606 0.322-1.583 0.698l-6.976 2.684c-0.502 0.199-0.851 0.68-0.851 1.243s0.349 1.044 0.842 1.24l0.009 0.003 6.976 2.684c0.978 0.376 1.359 0.538 1.583 0.698 0.243 0.173 0.456 0.386 0.628 0.628 0.16 0.224 0.322 0.606 0.698 1.583l2.684 6.976c0.199 0.502 0.68 0.851 1.243 0.851s1.044-0.349 1.24-0.842l0.003-0.009 2.684-6.976c0.376-0.978 0.538-1.359 0.698-1.583 0.173-0.243 0.386-0.456 0.628-0.628 0.224-0.16 0.606-0.322 1.583-0.698l6.976-2.684c0.502-0.199 0.851-0.68 0.851-1.243s-0.349-1.044-0.842-1.24l-0.009-0.003-6.976-2.684c-0.978-0.376-1.359-0.538-1.583-0.698-0.243-0.173-0.456-0.386-0.628-0.628-0.16-0.224-0.322-0.606-0.698-1.583l-2.684-6.976c-0.198-0.504-0.68-0.854-1.243-0.854h-0zM16 6.382l1.438 3.74c0.376 0.978 0.588 1.572 1.014 2.17 0.345 0.486 0.771 0.911 1.257 1.257 0.598 0.425 1.193 0.638 2.17 1.014l3.74 1.438-3.74 1.438c-0.977 0.376-1.572 0.588-2.17 1.014-0.486 0.346-0.911 0.771-1.257 1.257-0.425 0.598-0.638 1.193-1.014 2.17l-1.438 3.74-1.438-3.74c-0.376-0.978-0.589-1.572-1.014-2.17-0.345-0.486-0.771-0.911-1.257-1.257-0.598-0.425-1.193-0.638-2.17-1.014l-3.74-1.438 3.74-1.438c0.978-0.376 1.572-0.589 2.17-1.014 0.486-0.345 0.911-0.771 1.257-1.257 0.425-0.598 0.638-1.193 1.014-2.17z">
        </path>
    </symbol>
    <symbol id="icon-trash" viewBox="0 0 32 32">
        <path
            d="M12 2.699c-0 0-0.001 0-0.001 0-0.718 0-1.3 0.582-1.3 1.3 0 0 0 0.001 0 0.001v-0c0 0 0 0 0 0.001 0 0.718 0.582 1.3 1.3 1.3 0 0 0.001 0 0.001 0h8c0 0 0 0 0.001 0 0.718 0 1.3-0.582 1.3-1.3 0-0 0-0.001 0-0.001v0c0-0 0-0.001 0-0.001 0-0.718-0.582-1.3-1.3-1.3-0 0-0.001 0-0.001 0h0z">
        </path>
        <path
            d="M4 6.699c-0 0-0.001 0-0.001 0-0.718 0-1.3 0.582-1.3 1.3 0 0 0 0.001 0 0.001v-0c0 0 0 0 0 0.001 0 0.718 0.582 1.3 1.3 1.3 0 0 0.001 0 0.001 0h24c0 0 0 0 0.001 0 0.718 0 1.3-0.582 1.3-1.3 0-0 0-0.001 0-0.001v0c0-0 0-0 0-0.001 0-0.718-0.582-1.3-1.3-1.3-0 0-0.001 0-0.001 0h0z">
        </path>
        <path
            d="M6.578 6.703c-0.678 0.049-1.21 0.611-1.21 1.297 0 0.030 0.001 0.060 0.003 0.090l-0-0.004 0.801 12.020c0.149 2.231 0.196 3.457 0.68 4.645 0.805 1.979 2.437 3.508 4.465 4.18 1.217 0.403 2.447 0.371 4.684 0.371s3.462 0.032 4.68-0.371c2.028-0.672 3.664-2.2 4.469-4.18 0.483-1.188 0.531-2.413 0.68-4.645l0.801-12.020c0.002-0.026 0.003-0.056 0.003-0.086 0-0.688-0.534-1.251-1.21-1.297l-0.004-0c-0.026-0.002-0.056-0.003-0.086-0.003-0.688 0-1.251 0.534-1.297 1.21l-0 0.004-0.801 12.016c-0.149 2.231-0.25 3.235-0.496 3.84-0.519 1.276-1.568 2.259-2.875 2.691-0.62 0.205-1.627 0.238-3.863 0.238s-3.244-0.033-3.863-0.238c-1.307-0.433-2.36-1.416-2.879-2.691-0.246-0.605-0.343-1.609-0.492-3.84l-0.801-12.016c-0.046-0.68-0.609-1.214-1.297-1.214-0.032 0-0.063 0.001-0.094 0.003l0.004-0z">
        </path>
    </symbol>
    <symbol id="icon-x-close" viewBox="0 0 32 32">
        <path
            d="M24 6.667c-0.001 0-0.002 0-0.003 0-0.367 0-0.7 0.149-0.941 0.389l-16 16c-0.242 0.241-0.392 0.575-0.392 0.944s0.15 0.703 0.392 0.944l0 0c0.241 0.242 0.575 0.392 0.944 0.392s0.703-0.15 0.944-0.392l16-16c0.242-0.241 0.392-0.575 0.392-0.944s-0.15-0.703-0.392-0.944l-0-0c-0.241-0.24-0.574-0.389-0.941-0.389-0.001 0-0.002 0-0.003 0h0z">
        </path>
        <path
            d="M8 6.667c-0.001 0-0.002 0-0.003 0-0.367 0-0.7 0.149-0.941 0.389l0-0c-0.242 0.241-0.392 0.575-0.392 0.944s0.15 0.703 0.392 0.944l16 16c0.241 0.242 0.575 0.392 0.944 0.392s0.703-0.15 0.944-0.392l0-0c0.242-0.241 0.392-0.575 0.392-0.944s-0.15-0.703-0.392-0.944l-16-16c-0.241-0.24-0.574-0.389-0.941-0.389-0.001 0-0.002 0-0.003 0h0z">
        </path>
    </symbol>
    <symbol id="icon-eye-allow" viewBox="0 0 32 32">
        <path
            d="M16 6c-6.979 0-13.028 4.064-16 10 2.972 5.936 9.021 10 16 10s13.027-4.064 16-10c-2.972-5.936-9.021-10-16-10zM23.889 11.303c1.88 1.199 3.473 2.805 4.67 4.697-1.197 1.891-2.79 3.498-4.67 4.697-2.362 1.507-5.090 2.303-7.889 2.303s-5.527-0.796-7.889-2.303c-1.88-1.199-3.473-2.805-4.67-4.697 1.197-1.891 2.79-3.498 4.67-4.697 0.122-0.078 0.246-0.154 0.371-0.228-0.311 0.854-0.482 1.776-0.482 2.737 0 4.418 3.582 8 8 8s8-3.582 8-8c0-0.962-0.17-1.883-0.482-2.737 0.124 0.074 0.248 0.15 0.371 0.228v0zM16 13c0 1.657-1.343 3-3 3s-3-1.343-3-3 1.343-3 3-3 3 1.343 3 3z">
        </path>
    </symbol>
    <symbol id="icon-eye-denied" viewBox="0 0 32 32">
        <path
            d="M29.561 0.439c-0.586-0.586-1.535-0.586-2.121 0l-6.318 6.318c-1.623-0.492-3.342-0.757-5.122-0.757-6.979 0-13.028 4.064-16 10 1.285 2.566 3.145 4.782 5.407 6.472l-4.968 4.968c-0.586 0.586-0.586 1.535 0 2.121 0.293 0.293 0.677 0.439 1.061 0.439s0.768-0.146 1.061-0.439l27-27c0.586-0.586 0.586-1.536 0-2.121zM13 10c1.32 0 2.44 0.853 2.841 2.037l-3.804 3.804c-1.184-0.401-2.037-1.521-2.037-2.841 0-1.657 1.343-3 3-3zM3.441 16c1.197-1.891 2.79-3.498 4.67-4.697 0.122-0.078 0.246-0.154 0.371-0.228-0.311 0.854-0.482 1.776-0.482 2.737 0 1.715 0.54 3.304 1.459 4.607l-1.904 1.904c-1.639-1.151-3.038-2.621-4.114-4.323z">
        </path>
        <path
            d="M24 13.813c0-0.849-0.133-1.667-0.378-2.434l-10.056 10.056c0.768 0.245 1.586 0.378 2.435 0.378 4.418 0 8-3.582 8-8z">
        </path>
        <path
            d="M25.938 9.062l-2.168 2.168c0.040 0.025 0.079 0.049 0.118 0.074 1.88 1.199 3.473 2.805 4.67 4.697-1.197 1.891-2.79 3.498-4.67 4.697-2.362 1.507-5.090 2.303-7.889 2.303-1.208 0-2.403-0.149-3.561-0.439l-2.403 2.403c1.866 0.671 3.873 1.036 5.964 1.036 6.978 0 13.027-4.064 16-10-1.407-2.81-3.504-5.2-6.062-6.938z">
        </path>
    </symbol>
    <symbol id="icon-google" viewBox="0 0 40.96 40.96">
        <path
            d="M 20.479999,0.64000001 C 9.5237136,0.64000001 0.64000001,9.5237136 0.64000001,20.479999 0.64000001,31.436286 9.5237136,40.32 20.479999,40.32 31.436286,40.32 40.32,31.436286 40.32,20.479999 40.32,9.5237136 31.436286,0.64000001 20.479999,0.64000001 Z M 27.875713,28.699429 C 26.077712,30.355713 23.624286,31.33 20.696998,31.33 16.458857,31.33 12.792,28.898712 11.007286,25.355857 10.272144,23.890001 9.8514275,22.233715 9.8514275,20.479999 c 0,-1.753714 0.4207165,-3.41 1.1558585,-4.875857 1.784714,-3.547285 5.451571,-5.9785707 9.689712,-5.9785707 2.922858,0 5.376288,1.0761427 7.258431,2.8254297 l -3.108856,3.113284 c -1.124857,-1.076141 -2.555289,-1.620856 -4.145144,-1.620856 -2.825431,0 -5.216857,1.908713 -6.071572,4.472855 -0.217,0.651001 -0.341,1.346289 -0.341,2.063715 0,0.717428 0.124,1.412716 0.341,2.063716 0.854715,2.564143 3.246141,4.472859 6.067141,4.472859 1.461432,0 2.701429,-0.385289 3.671289,-1.036288 1.151429,-0.770572 1.913139,-1.91757 2.165569,-3.277142 h -5.836858 v -4.198288 h 10.216716 c 0.128429,0.712999 0.194856,1.452572 0.194856,2.218716 0,3.308143 -1.182427,6.084857 -3.232857,7.975857 z"
            id="path2" style="stroke-width:0.0442859" />
    </symbol>
    <symbol id="icon-user" viewBox="0 0 68 68">
        <path
            d="m 34.458007,20.005859 a 11.3334,11.3334 0 0 0 -11.333984,11.333984 11.3334,11.3334 0 0 0 7.865234,10.769532 c -2.627096,0.285496 -5.205411,0.937962 -7.65625,1.953125 -3.3821,1.4009 -6.456321,3.454468 -9.044922,6.042968 -2.588499,2.5886 -4.6420479,5.662822 -6.0429678,9.044922 C 7.0766811,61.971228 6.3888842,64.961364 6.1904296,68 H 61.80957 c -0.198438,-3.038636 -0.886185,-6.028772 -2.054688,-8.84961 -1.4009,-3.3821 -3.454468,-6.456322 -6.042968,-9.044922 -2.5886,-2.5885 -5.660869,-4.642068 -9.042969,-6.042968 -2.236688,-0.926459 -4.581448,-1.547308 -6.970703,-1.867188 A 11.3334,11.3334 0 0 0 45.790039,31.339843 11.3334,11.3334 0 0 0 34.458007,20.005859 Z" />
    </symbol>
</svg>