<svg aria-hidden="true" style="position: absolute; width: 0; height: 0; overflow: hidden;" version="1.1" xmlns="http://www.w3.org/2000/svg" xmlns:xlink="http://www.w3.org/1999/xlink">
<defs>
<symbol id="icon-plus" viewBox="0 0 32 32">
<path d="M16 5.069c-0.884 0-1.6 0.716-1.6 1.6v0 18.663c0 0.884 0.716 1.6 1.6 1.6v0c0.884 0 1.6-0.716 1.6-1.6v0-18.663c0-0.884-0.716-1.6-1.6-1.6v0z"></path>
<path d="M6.669 14.4c-0.884 0-1.6 0.716-1.6 1.6v0c0 0.884 0.716 1.6 1.6 1.6v0h18.663c0.884 0 1.6-0.716 1.6-1.6v0c0-0.884-0.716-1.6-1.6-1.6v0z"></path>
</symbol>
<symbol id="icon-menu-01" viewBox="0 0 32 32">
<path d="M4 16h24z"></path>
<path d="M4 14.75c-0.69 0-1.25 0.56-1.25 1.25v0c0 0.69 0.56 1.25 1.25 1.25v0h24c0.69 0 1.25-0.56 1.25-1.25v0c0-0.69-0.56-1.25-1.25-1.25v0z"></path>
<path d="M4 8h24z"></path>
<path d="M4 6.75c-0.69 0-1.25 0.56-1.25 1.25v0c0 0.69 0.56 1.25 1.25 1.25v0h24c0.69 0 1.25-0.56 1.25-1.25v0c0-0.69-0.56-1.25-1.25-1.25v0z"></path>
<path d="M4 24h24z"></path>
<path d="M4 22.75c-0.69 0-1.25 0.56-1.25 1.25v0c0 0.69 0.56 1.25 1.25 1.25v0h24c0.69 0 1.25-0.56 1.25-1.25v0c0-0.69-0.56-1.25-1.25-1.25v0z"></path>
</symbol>
</defs>
</svg>
